<?xml version="1.0" encoding="UTF-8"?>
<svg version="1.1" xmlns="http://www.w3.org/2000/svg" width="400" height="398">
<path d="M0 0 C0 18.81 0 37.62 0 57 C6.27 54.03 12.54 51.06 19 48 C33.31334626 43.9104725 48.18599523 45.03792528 61.80078125 51.28515625 C78.12425803 60.3988859 88.05090477 74.887209 94.10546875 92.15234375 C99.35283717 111.2941525 96.20435611 131.49157794 86.984375 148.80859375 C83.87769211 153.80497154 80.2032104 157.9074004 76 162 C75.40960938 162.62261719 74.81921875 163.24523437 74.2109375 163.88671875 C63.08691701 174.79021901 46.90892746 179.81429019 31.6875 180.4375 C12.31695072 179.91653168 -3.7088061 172.05202948 -17.08984375 158.21875 C-28.63019664 144.81400472 -33.31804453 129.15281506 -33.2746582 111.77050781 C-33.2823246 110.15880455 -33.2823246 110.15880455 -33.29014587 108.51454163 C-33.30394774 104.99401142 -33.30309308 101.47367889 -33.30078125 97.953125 C-33.30467156 95.49314299 -33.30900692 93.03316164 -33.31376648 90.57318115 C-33.3212071 85.43239151 -33.32095175 80.29167059 -33.31567383 75.15087891 C-33.30986289 68.56463565 -33.32686004 61.97867211 -33.3500185 55.39247513 C-33.36474477 50.31899371 -33.36562936 45.24557999 -33.36250877 40.17208099 C-33.36302191 37.74320672 -33.36825813 35.31432864 -33.37832069 32.88547516 C-33.39065454 29.49410197 -33.38391277 26.10327842 -33.37231445 22.71191406 C-33.37995819 21.71126419 -33.38760193 20.71061432 -33.39547729 19.67964172 C-33.34639048 13.18703787 -32.35736179 8.92638015 -28.1875 3.75 C-20.1505201 -2.67958392 -9.72374074 0 0 0 Z M5.2734375 90.06640625 C-0.35677094 97.81834349 -3.36140831 107.40895497 -2 117 C0.51672232 128.53142263 5.23389324 137.19392972 15 144 C21.97943297 148.41527979 28.8875299 148.94859577 37 148 C44.74173102 146.23298579 50.89716833 142.0377016 56 136 C62.61551246 125.15945437 64.97117174 114.46399926 62.3515625 101.88671875 C58.96377782 91.65097614 52.60122343 83.9549461 43 79 C28.13589445 73.13895025 15.08836242 78.31958434 5.2734375 90.06640625 Z " fill="#307EE1" transform="translate(72,118)"/>
<path d="M0 0 C4.79833011 4.92460196 6.24681586 8.84658958 6.27124023 15.66113281 C6.27646698 16.32186295 6.28169373 16.98259308 6.28707886 17.66334534 C6.29729858 19.09451175 6.30309573 20.52571512 6.30496025 21.95691681 C6.3086339 24.22794279 6.32538927 26.49853593 6.34571838 28.76947021 C6.40102167 35.22497474 6.43173467 41.68054359 6.45629883 48.13623047 C6.47224619 52.08970102 6.50254328 56.04286612 6.54106331 59.99617767 C6.55265431 61.49671923 6.55864314 62.9973156 6.55874443 64.49790192 C6.55971041 75.0040729 6.89563197 83.52223739 14.421875 91.5234375 C19.56374315 96.33439334 24.86685734 96.64756187 31.66796875 96.4765625 C37.68201866 95.6164053 42.62696432 92.93473828 46.46875 88.18359375 C49.65023141 82.92278698 50.12425459 78.36913245 50.1418457 72.33886719 C50.14705734 71.34777199 50.14705734 71.34777199 50.15237427 70.33665466 C50.15970973 68.90547267 50.16506685 67.47427946 50.16866493 66.04308319 C50.17585962 63.77213955 50.19154926 61.50140835 50.21000671 59.23052979 C50.26232873 52.77497302 50.31041334 46.3195337 50.32592773 39.86376953 C50.33605 35.91020366 50.36548033 31.95717518 50.40724754 28.00382233 C50.41950182 26.50328906 50.42468904 25.00267971 50.42244911 23.50209808 C50.40423564 7.31554884 50.40423564 7.31554884 55 2 C60.79886623 -2.74656232 66.16514739 -2.49603926 73.4375 -2.25 C74.96407227 -2.22292969 74.96407227 -2.22292969 76.52148438 -2.1953125 C79.01531655 -2.14847997 81.50715047 -2.08291427 84 -2 C84.0930928 8.85803012 84.16396308 19.71596372 84.20724869 30.57431316 C84.22803419 35.61747626 84.25618478 40.66036429 84.30175781 45.70336914 C84.34554035 50.57931496 84.36920489 55.45499788 84.37950897 60.33112526 C84.38684262 62.18207748 84.40116184 64.03301696 84.42292023 65.88385582 C84.6303951 84.28082833 81.34836484 99.46578401 68.25 113.375 C56.72395949 124.25586123 41.72839492 129.34117481 26.078125 129.1484375 C10.65998542 128.40492315 -3.14165892 121.36359321 -13.75 110.3125 C-26.11431076 95.8729074 -27.45642069 79.81183508 -27.29296875 61.671875 C-27.28736192 59.82814888 -27.28309697 57.98441825 -27.28010559 56.14068604 C-27.26874234 51.32712094 -27.23935017 46.51383463 -27.20599365 41.70037842 C-27.17510738 36.77294687 -27.16156089 31.84546954 -27.14648438 26.91796875 C-27.11447094 17.27852447 -27.06337979 7.63928557 -27 -2 C-17.59539819 -3.38423311 -8.67510267 -4.49246388 0 0 Z " fill="#307EE1" transform="translate(277,169)"/>
<path d="M0 0 C1.54204102 0.00966797 1.54204102 0.00966797 3.11523438 0.01953125 C4.18708984 0.03628906 5.25894531 0.05304688 6.36328125 0.0703125 C7.44673828 0.07933594 8.53019531 0.08835937 9.64648438 0.09765625 C12.32313835 0.1212391 14.99934922 0.15415124 17.67578125 0.1953125 C17.74590101 21.57045102 17.79878399 42.94557053 17.83121777 64.32080078 C17.84667844 74.24597013 17.8677527 84.17106796 17.90209961 94.09619141 C17.93202641 102.74818374 17.95136207 111.40012428 17.95804673 120.05216694 C17.96195343 124.6322248 17.97111808 129.21213447 17.99297142 133.79214478 C18.0133884 138.10622248 18.01960453 142.42009145 18.01510429 146.73421288 C18.01592717 148.31439538 18.02186176 149.89458512 18.03339767 151.47472572 C18.15413119 168.87087743 18.15413119 168.87087743 12.36328125 176.0703125 C6.65656152 180.58260252 0.81990501 180.48286992 -6.13671875 180.3828125 C-7.00748047 180.38216797 -7.87824219 180.38152344 -8.77539062 180.38085938 C-15.18362441 180.33590684 -15.18362441 180.33590684 -16.32421875 179.1953125 C-16.42769827 177.08493305 -16.4594523 174.97103227 -16.46466064 172.85812378 C-16.46763177 172.18842218 -16.47060289 171.51872057 -16.47366405 170.82872498 C-16.482387 168.56793316 -16.48386233 166.30719407 -16.48535156 164.04638672 C-16.48997737 162.43200059 -16.49500171 160.81761556 -16.50039673 159.20323181 C-16.5135497 154.80420141 -16.51997186 150.40518629 -16.52440739 146.00613928 C-16.52733478 143.25841534 -16.53143905 140.51069561 -16.53591156 137.76297379 C-16.54959705 129.16819556 -16.5592573 120.5734269 -16.56311345 111.97863853 C-16.56759033 102.05408952 -16.58511659 92.12967851 -16.61411405 82.20517147 C-16.63573844 74.53801118 -16.64581822 66.87088968 -16.64715457 59.20369923 C-16.64820249 54.62314058 -16.654107 50.04271147 -16.67197418 45.46218491 C-16.68846689 41.14972484 -16.69060455 36.83749145 -16.68183517 32.52501106 C-16.68106531 30.94441305 -16.68540081 29.3638028 -16.69529343 27.78323555 C-16.70803536 25.62002311 -16.70212459 23.45761071 -16.69171143 21.29440308 C-16.69317799 20.08538771 -16.69464455 18.87637234 -16.69615555 17.63072014 C-15.98075193 11.02286881 -13.36119719 6.60266864 -8.32421875 2.1953125 C-4.97302356 -0.03881763 -3.90644325 -0.04316512 0 0 Z " fill="#307EE1" transform="translate(208.32421875,117.8046875)"/>
<path d="M0 0 C3.83266101 4.0649435 4.51870055 7.47687918 4.375 12.9375 C3.87657003 16.52619577 2.4656417 18.53139601 0.0625 21.1875 C-4.28190676 24.31951418 -7.69623476 24.5592532 -12.8203125 23.765625 C-16.63906927 22.72286485 -19.02007376 20.71329045 -21.0390625 17.35546875 C-22.6849875 13.38378017 -22.58784569 9.39483842 -21.9375 5.1875 C-20.26856993 1.80826142 -17.86113706 -0.22239854 -14.6875 -2.25 C-9.3521547 -3.34132063 -4.65364082 -2.8713954 0 0 Z " fill="#000000" transform="translate(124.9375,102.8125)"/>
</svg>
